<?xml version="1.0" encoding="UTF-8"?>
<svg xmlns="http://www.w3.org/2000/svg" xmlns:xlink="http://www.w3.org/1999/xlink" width="1440pt" height="809.999993pt" viewBox="0 0 1440 809.999993" version="1.2">
<defs>
<clipPath id="clip1">
  <path d="M 43 630 L 201 630 L 201 795.613281 L 43 795.613281 Z M 43 630 "/>
</clipPath>
<clipPath id="clip2">
  <path d="M 633.808594 314 L 1416.445312 314 L 1416.445312 774 L 633.808594 774 Z M 633.808594 314 "/>
</clipPath>
</defs>
<g id="surface1">
<rect x="0" y="0" width="1440" height="809.999993" style="fill:rgb(100%,100%,100%);fill-opacity:1;stroke:none;"/>
<rect x="0" y="0" width="1440" height="809.999993" style="fill:rgb(100%,100%,100%);fill-opacity:1;stroke:none;"/>
<rect x="0" y="0" width="1440" height="809.999993" style="fill:rgb(18.429565%,50.19989%,92.939758%);fill-opacity:1;stroke:none;"/>
<path style=" stroke:none;fill-rule:nonzero;fill:rgb(10.5896%,67.059326%,19.60907%);fill-opacity:1;" d="M 111.503906 742.222656 C 112.847656 718.285156 110.367188 694.984375 103.554688 671.992188 C 101.40625 664.738281 100.035156 655.925781 98.878906 647.277344 C 111.515625 663.949219 120.324219 682.152344 123.984375 702.746094 C 123.984375 702.738281 112.046875 735.15625 111.503906 742.222656 Z M 111.503906 742.222656 "/>
<path style=" stroke:none;fill-rule:nonzero;fill:rgb(10.5896%,67.059326%,19.60907%);fill-opacity:1;" d="M 152.816406 793.230469 C 154.542969 774.320312 157.296875 754.8125 160.382812 736.078125 C 163.90625 714.730469 169.230469 690.773438 183.089844 674.148438 C 164.960938 684.71875 150.058594 699.71875 139.730469 717.972656 C 139.730469 717.972656 130.140625 752.882812 128.472656 769.546875 C 126.800781 786.214844 126.511719 793.855469 126.511719 793.855469 Z M 152.816406 793.230469 "/>
<path style=" stroke:none;fill-rule:nonzero;fill:rgb(10.5896%,67.059326%,19.60907%);fill-opacity:1;" d="M 56.828125 663.023438 C 79.160156 702.171875 90.773438 748.171875 91.546875 793.230469 C 93.984375 793.554688 100.238281 792.902344 102.675781 793.230469 L 109.097656 753.398438 C 96.679688 720.230469 82.683594 687.253906 56.828125 663.023438 Z M 56.828125 663.023438 "/>
<path style=" stroke:none;fill-rule:nonzero;fill:rgb(10.5896%,67.059326%,19.60907%);fill-opacity:1;" d="M 152.816406 793.230469 C 157.546875 793.011719 167.109375 794.65625 171.648438 793.328125 C 172.757812 784.164062 171.03125 770.847656 172.984375 761.824219 C 174.714844 753.847656 176.789062 745.890625 180.253906 738.5 C 184.789062 728.820312 191.574219 720.835938 198.292969 712.515625 C 182.800781 719.652344 170.28125 728.34375 159.503906 741.558594 C 159.5 741.5625 153.511719 782.179688 152.816406 793.230469 Z M 152.816406 793.230469 "/>
<path style=" stroke:none;fill-rule:nonzero;fill:rgb(10.5896%,67.059326%,19.60907%);fill-opacity:1;" d="M 90.703125 772.113281 C 84.582031 765.464844 77.859375 757.796875 71.738281 751.148438 C 64.230469 742.988281 55.070312 733.128906 45.144531 728.183594 C 59.941406 745.054688 69.335938 768.363281 74.019531 790.296875 C 74.210938 791.1875 74.410156 792.125 75.011719 792.808594 C 75.675781 793.570312 87.171875 793.691406 91.113281 792.976562 Z M 90.703125 772.113281 "/>
<path style=" stroke:none;fill-rule:nonzero;fill:rgb(10.5896%,67.059326%,19.60907%);fill-opacity:1;" d="M 175.652344 632.101562 C 151.480469 650.238281 135.839844 674.960938 123.984375 702.738281 C 112.128906 730.515625 107.792969 763.464844 102.675781 793.230469 C 111.75 793.148438 116.765625 793.308594 125.832031 793.230469 C 129.535156 757.964844 138.605469 719.621094 149.117188 685.753906 C 155.054688 666.625 161.167969 645.945312 175.652344 632.101562 Z M 175.652344 632.101562 "/>
<g clip-path="url(#clip1)" clip-rule="nonzero">
<path style=" stroke:none;fill-rule:nonzero;fill:rgb(18.429565%,50.19989%,92.939758%);fill-opacity:1;" d="M 199.804688 711.335938 C 199.253906 710.632812 198.292969 710.394531 197.484375 710.777344 C 182.867188 717.507812 171.832031 725.210938 162.480469 735.25 C 165.972656 714.40625 171.378906 691.195312 184.570312 675.382812 C 185.164062 674.664062 185.160156 673.625 184.5625 672.910156 C 183.957031 672.203125 182.933594 672.023438 182.125 672.496094 C 167.503906 681.019531 154.933594 692.519531 145.144531 706.09375 C 147.136719 698.929688 149.109375 692.269531 150.953125 686.320312 L 151.453125 684.703125 C 157.257812 665.96875 163.261719 646.597656 176.980469 633.488281 C 177.714844 632.785156 177.773438 631.632812 177.117188 630.859375 C 176.460938 630.089844 175.316406 629.960938 174.5 630.566406 C 153.886719 646.035156 137.949219 667.085938 124.636719 696.496094 C 120.582031 678.796875 112.648438 662.25 100.410156 646.113281 C 99.878906 645.414062 98.953125 645.171875 98.148438 645.5 C 97.339844 645.832031 96.859375 646.664062 96.976562 647.527344 C 98.0625 655.644531 99.472656 664.96875 101.714844 672.535156 C 108.378906 695.03125 110.953125 717.789062 109.589844 742.109375 C 109.570312 742.425781 109.648438 742.714844 109.765625 742.980469 C 109.453125 744.421875 109.148438 745.863281 108.851562 747.304688 C 97.136719 716.523438 83.179688 685.085938 58.144531 661.628906 C 57.453125 660.980469 56.390625 660.929688 55.640625 661.523438 C 54.898438 662.109375 54.691406 663.152344 55.160156 663.976562 C 72.351562 694.117188 83.609375 729.605469 87.808594 766.082031 C 86.085938 764.179688 84.347656 762.242188 82.605469 760.296875 C 79.40625 756.730469 76.207031 753.167969 73.15625 749.851562 C 66.085938 742.167969 56.402344 731.648438 46.003906 726.472656 C 45.1875 726.0625 44.1875 726.289062 43.628906 727.015625 C 43.066406 727.746094 43.097656 728.761719 43.703125 729.453125 C 56.796875 744.386719 66.898438 766.136719 72.140625 790.699219 C 72.359375 791.730469 72.632812 793.015625 73.566406 794.082031 C 74.445312 795.085938 78.230469 795.382812 82.113281 795.382812 C 85.605469 795.382812 89.148438 795.144531 90.753906 794.964844 C 90.921875 795.039062 91.101562 795.109375 91.292969 795.136719 C 91.902344 795.214844 92.675781 795.246094 93.542969 795.246094 C 94.640625 795.246094 95.894531 795.199219 97.1875 795.15625 C 99.148438 795.078125 101.371094 794.992188 102.421875 795.136719 C 102.472656 795.144531 102.523438 795.125 102.574219 795.128906 C 102.617188 795.132812 102.648438 795.15625 102.695312 795.15625 C 107.21875 795.109375 110.734375 795.136719 114.246094 795.15625 C 116.285156 795.167969 118.320312 795.179688 120.554688 795.179688 C 122.191406 795.179688 123.929688 795.175781 125.851562 795.15625 L 144.867188 795.15625 C 144.878906 795.15625 144.894531 795.15625 144.910156 795.15625 L 152.820312 795.15625 C 152.835938 795.15625 152.851562 795.148438 152.867188 795.148438 C 152.882812 795.148438 152.894531 795.15625 152.910156 795.152344 C 154.542969 795.070312 156.878906 795.242188 159.363281 795.421875 C 161.824219 795.601562 164.328125 795.78125 166.617188 795.78125 C 168.730469 795.78125 170.65625 795.625 172.195312 795.179688 C 172.933594 794.964844 173.46875 794.328125 173.5625 793.566406 C 174.058594 789.460938 174.003906 784.726562 173.949219 779.714844 C 173.875 773.53125 173.808594 767.132812 174.867188 762.238281 C 176.402344 755.148438 178.453125 746.882812 181.996094 739.320312 C 186.046875 730.675781 191.886719 723.476562 198.070312 715.855469 L 199.789062 713.726562 C 200.347656 713.027344 200.355469 712.042969 199.804688 711.335938 Z M 175.757812 681.125 C 165.953125 697.125 161.515625 717.433594 158.492188 735.765625 C 155.058594 756.585938 152.628906 774.773438 151.070312 791.308594 L 146.730469 791.308594 C 146.285156 773.953125 144.65625 749.964844 139.492188 730.441406 C 139.414062 730.132812 139.242188 729.878906 139.035156 729.65625 C 139.984375 725.6875 140.953125 721.808594 141.933594 718.039062 C 150.367188 703.453125 161.925781 690.839844 175.757812 681.125 Z M 137.214844 737.519531 C 141.132812 755.410156 142.488281 775.941406 142.890625 791.308594 L 127.988281 791.308594 C 130.027344 772.859375 133.382812 754.511719 137.214844 737.519531 Z M 105.394531 671.449219 C 103.90625 666.410156 102.785156 660.515625 101.886719 654.730469 C 112.332031 670.019531 118.917969 685.742188 121.988281 702.570312 C 118.695312 710.367188 116.023438 718.523438 113.722656 726.878906 C 113.480469 707.808594 110.757812 689.542969 105.394531 671.449219 Z M 76.257812 791.21875 C 76.097656 790.859375 75.996094 790.355469 75.894531 789.894531 C 71.511719 769.371094 63.796875 750.726562 53.773438 736.1875 C 59.992188 741.222656 65.722656 747.453125 70.320312 752.445312 C 73.363281 755.742188 76.546875 759.296875 79.734375 762.851562 C 82.683594 766.140625 85.621094 769.402344 88.453125 772.5 C 89.027344 778.734375 89.402344 784.992188 89.550781 791.246094 C 85.605469 791.683594 78.296875 791.570312 76.257812 791.21875 Z M 97.039062 791.308594 C 95.820312 791.355469 94.492188 791.367188 93.425781 791.402344 C 93.265625 784.53125 92.757812 777.671875 92.09375 770.820312 C 92.105469 770.816406 92.105469 770.8125 92.117188 770.804688 C 92.109375 770.796875 92.097656 770.789062 92.089844 770.777344 C 88.800781 736.828125 79.535156 703.527344 65.011719 674.296875 C 84.988281 697.3125 96.859375 726.171875 107.304688 754.0625 C 107.339844 754.15625 107.40625 754.222656 107.457031 754.308594 C 105.78125 763.09375 104.289062 771.933594 102.839844 780.679688 C 102.25 784.230469 101.664062 787.738281 101.070312 791.21875 C 99.875 791.210938 98.492188 791.257812 97.039062 791.308594 Z M 114.269531 791.308594 C 112.230469 791.296875 110.191406 791.289062 107.960938 791.289062 C 107 791.289062 106.003906 791.289062 104.953125 791.296875 C 105.515625 788 106.066406 784.664062 106.625 781.308594 C 111.03125 754.757812 115.585938 727.296875 125.75 703.488281 C 136.050781 679.359375 147.925781 660.726562 162.425781 646.148438 C 155.839844 657.574219 151.769531 670.714844 147.78125 683.570312 L 147.285156 685.179688 C 144.472656 694.234375 141.378906 704.886719 138.347656 716.554688 C 138.257812 716.714844 138.148438 716.867188 138.0625 717.03125 C 138.121094 717.0625 138.144531 717.089844 138.203125 717.125 C 132.457031 739.320312 126.964844 765.21875 124.109375 791.324219 C 120.382812 791.355469 117.324219 791.324219 114.269531 791.308594 Z M 178.511719 737.691406 C 174.804688 745.59375 172.691406 754.121094 171.109375 761.425781 C 169.957031 766.738281 170.03125 773.355469 170.105469 779.753906 C 170.15625 784.078125 170.203125 788.183594 169.886719 791.746094 C 167.214844 792.140625 163.21875 791.84375 159.636719 791.59375 C 157.960938 791.476562 156.367188 791.363281 154.9375 791.316406 C 156.335938 776.582031 158.429688 760.5 161.316406 742.394531 C 169.507812 732.453125 178.964844 724.757812 191.296875 718.136719 C 186.503906 724.171875 181.878906 730.503906 178.511719 737.691406 Z M 178.511719 737.691406 "/>
</g>
<g clip-path="url(#clip2)" clip-rule="nonzero">
<path style=" stroke:none;fill-rule:nonzero;fill:rgb(29.798889%,47.059631%,77.249146%);fill-opacity:1;" d="M 869.925781 482.375 C 881.796875 480.996094 890.792969 470.929688 890.765625 458.960938 L 890.765625 458.929688 C 890.765625 379.207031 1008.453125 314.570312 1153.621094 314.570312 C 1298.753906 314.570312 1416.445312 379.207031 1416.445312 458.929688 C 1416.445312 511.632812 1365.066406 557.722656 1288.351562 582.941406 C 1269.839844 589.03125 1257.324219 606.320312 1257.324219 625.785156 L 1257.324219 625.816406 C 1257.324219 707.347656 1117.574219 773.511719 945.203125 773.511719 C 772.832031 773.511719 633.082031 707.347656 633.082031 625.816406 C 633.082031 556.496094 733.90625 498.320312 869.925781 482.375 "/>
</g>
<path style=" stroke:none;fill-rule:nonzero;fill:rgb(16.859436%,39.219666%,17.248535%);fill-opacity:1;" d="M 1180.945312 395.519531 L 1191.808594 402.160156 C 1194.257812 400.230469 1199.367188 396.867188 1206.25 395.550781 L 1207.414062 388.265625 L 1221.613281 396.589844 C 1225.558594 397.875 1229.753906 400.078125 1234.097656 403.507812 C 1229.628906 407.058594 1225.316406 409.289062 1221.277344 410.546875 L 1207.414062 418.6875 L 1206.25 411.496094 C 1199.609375 410.238281 1194.59375 407.058594 1192.054688 405.097656 L 1180.945312 412.199219 L 1180.945312 395.519531 "/>
<path style=" stroke:none;fill-rule:nonzero;fill:rgb(97.648621%,65.879822%,49.409485%);fill-opacity:1;" d="M 1224.488281 403.507812 C 1224.488281 404.667969 1225.4375 405.617188 1226.601562 405.617188 C 1227.761719 405.617188 1228.710938 404.667969 1228.710938 403.507812 C 1228.710938 402.34375 1227.761719 401.425781 1226.601562 401.425781 C 1225.4375 401.425781 1224.488281 402.34375 1224.488281 403.507812 "/>
<path style=" stroke:none;fill-rule:nonzero;fill:rgb(16.859436%,39.219666%,17.248535%);fill-opacity:1;" d="M 1104.167969 457.371094 L 1115.0625 463.980469 C 1117.511719 462.082031 1122.621094 458.6875 1129.507812 457.371094 L 1130.699219 450.085938 L 1144.835938 458.410156 C 1148.816406 459.695312 1152.976562 461.898438 1157.351562 465.359375 C 1152.886719 468.847656 1148.570312 471.113281 1144.5 472.367188 L 1130.699219 480.507812 L 1129.507812 473.316406 C 1122.867188 472.03125 1117.878906 468.847656 1115.339844 466.886719 L 1104.167969 473.988281 L 1104.167969 457.371094 "/>
<path style=" stroke:none;fill-rule:nonzero;fill:rgb(97.648621%,65.879822%,49.409485%);fill-opacity:1;" d="M 1147.773438 465.359375 C 1147.773438 466.492188 1148.691406 467.4375 1149.855469 467.4375 C 1151.019531 467.4375 1151.96875 466.492188 1151.96875 465.359375 C 1151.96875 464.195312 1151.019531 463.246094 1149.855469 463.246094 C 1148.691406 463.246094 1147.773438 464.195312 1147.773438 465.359375 "/>
<path style=" stroke:none;fill-rule:nonzero;fill:rgb(16.859436%,39.219666%,17.248535%);fill-opacity:1;" d="M 1006.433594 398.519531 L 1017.328125 405.160156 C 1019.773438 403.230469 1024.914062 399.863281 1031.769531 398.546875 L 1032.964844 391.265625 L 1047.101562 399.621094 C 1051.078125 400.875 1055.269531 403.109375 1059.617188 406.535156 C 1055.148438 410.054688 1050.863281 412.289062 1046.761719 413.546875 L 1032.964844 421.6875 L 1031.769531 414.523438 C 1025.128906 413.238281 1020.140625 410.054688 1017.601562 408.097656 L 1006.433594 415.199219 L 1006.433594 398.519531 "/>
<path style=" stroke:none;fill-rule:nonzero;fill:rgb(97.648621%,65.879822%,49.409485%);fill-opacity:1;" d="M 1050.007812 406.535156 C 1050.007812 407.667969 1050.925781 408.617188 1052.117188 408.617188 C 1053.28125 408.617188 1054.230469 407.667969 1054.230469 406.535156 C 1054.230469 405.375 1053.28125 404.394531 1052.117188 404.394531 C 1050.925781 404.394531 1050.007812 405.375 1050.007812 406.535156 "/>
<path style=" stroke:none;fill-rule:nonzero;fill:rgb(16.859436%,39.219666%,17.248535%);fill-opacity:1;" d="M 1234.097656 511.480469 L 1244.960938 518.089844 C 1247.410156 516.160156 1252.519531 512.824219 1259.402344 511.480469 L 1260.566406 504.226562 L 1274.765625 512.519531 C 1278.710938 513.835938 1282.90625 516.039062 1287.25 519.464844 C 1282.78125 523.015625 1278.5 525.21875 1274.429688 526.503906 L 1260.566406 534.617188 L 1259.402344 527.453125 C 1252.765625 526.167969 1247.777344 522.957031 1245.207031 521.027344 L 1234.097656 528.128906 L 1234.097656 511.480469 "/>
<path style=" stroke:none;fill-rule:nonzero;fill:rgb(97.648621%,65.879822%,49.409485%);fill-opacity:1;" d="M 1277.640625 519.464844 C 1277.640625 520.628906 1278.589844 521.546875 1279.785156 521.546875 C 1280.914062 521.546875 1281.863281 520.628906 1281.863281 519.464844 C 1281.863281 518.335938 1280.914062 517.355469 1279.785156 517.355469 C 1278.589844 517.355469 1277.640625 518.335938 1277.640625 519.464844 "/>
<path style=" stroke:none;fill-rule:nonzero;fill:rgb(16.859436%,39.219666%,17.248535%);fill-opacity:1;" d="M 1083.699219 568.128906 L 1094.5625 574.738281 C 1097.007812 572.839844 1102.121094 569.445312 1109.003906 568.15625 L 1110.167969 560.90625 L 1124.335938 569.167969 C 1128.3125 570.484375 1132.503906 572.65625 1136.851562 576.085938 C 1132.382812 579.632812 1128.066406 581.867188 1124 583.152344 L 1110.167969 591.265625 L 1109.003906 584.074219 C 1102.363281 582.816406 1097.375 579.605469 1094.835938 577.675781 L 1083.699219 584.777344 L 1083.699219 568.128906 "/>
<path style=" stroke:none;fill-rule:nonzero;fill:rgb(97.648621%,65.879822%,49.409485%);fill-opacity:1;" d="M 1127.242188 576.085938 C 1127.242188 577.246094 1128.160156 578.226562 1129.324219 578.226562 C 1130.515625 578.226562 1131.464844 577.246094 1131.464844 576.085938 C 1131.464844 574.921875 1130.515625 574.003906 1129.324219 574.003906 C 1128.160156 574.003906 1127.242188 574.921875 1127.242188 576.085938 "/>
<path style=" stroke:none;fill-rule:nonzero;fill:rgb(92.939758%,11.369324%,14.118958%);fill-opacity:1;" d="M 806.550781 495.226562 C 807.652344 495.226562 808.570312 494.339844 808.570312 493.238281 C 808.570312 492.136719 807.652344 491.21875 806.550781 491.21875 C 805.449219 491.21875 804.53125 492.136719 804.53125 493.238281 C 804.53125 494.339844 805.449219 495.226562 806.550781 495.226562 Z M 783.632812 491.890625 L 785.253906 491.921875 C 793.730469 491.921875 799.882812 491.496094 801.320312 490.820312 L 802.878906 489.902344 C 803.828125 489.261719 804.777344 488.648438 806.183594 488.496094 C 806.183594 488.496094 806.675781 488.402344 807.410156 488.402344 C 809 488.402344 812.703125 488.832031 815.183594 492.289062 C 818.730469 487.300781 826.042969 481.882812 826.382812 481.609375 L 828.066406 480.386719 L 827.820312 482.464844 C 827.453125 485.464844 825.1875 491.066406 823.871094 494.09375 C 831.03125 491.464844 840.242188 491.066406 845.355469 491.066406 C 847.679688 491.066406 849.148438 491.15625 849.148438 491.15625 L 851.351562 491.28125 L 849.699219 492.71875 C 842.476562 498.960938 831.429688 505.480469 828.15625 507.378906 C 841.34375 522.648438 850.21875 530.179688 850.339844 530.238281 L 849.179688 531.675781 C 849.054688 531.554688 836.113281 521.855469 832.839844 520.382812 C 832.105469 520.015625 830.421875 519.648438 828.492188 519.253906 C 822.097656 517.84375 812.488281 515.734375 809.03125 509.488281 C 807.652344 507.042969 806.675781 504.746094 805.847656 502.695312 C 803.980469 498.195312 802.726562 495.226562 799.148438 494.828125 L 783.570312 493.699219 L 783.632812 491.890625 "/>
<path style=" stroke:none;fill-rule:nonzero;fill:rgb(17.248535%,39.99939%,17.649841%);fill-opacity:1;" d="M 853.339844 593.253906 C 879.535156 595.367188 897.589844 621.226562 897.589844 621.226562 C 910.777344 577.644531 883.789062 551.785156 883.789062 551.785156 C 922.957031 560.964844 917.875 606.167969 917.875 606.167969 C 940.855469 541.226562 996.976562 565.28125 996.976562 565.28125 C 959.003906 569.65625 950.769531 594.050781 950.769531 594.050781 C 1000.648438 556.4375 1043 624.195312 1043 624.195312 C 978.523438 587.070312 958.085938 624.164062 958.085938 624.164062 C 1003.894531 593.375 1061.847656 661.65625 1061.847656 661.65625 C 997.863281 620.277344 965.550781 656.480469 950.585938 688.035156 L 860.101562 688.035156 C 900.035156 630.804688 853.339844 593.253906 853.339844 593.253906 "/>
<path style=" stroke:none;fill-rule:nonzero;fill:rgb(30.589294%,73.728943%,21.569824%);fill-opacity:1;" d="M 697.464844 577.125 C 819.375 549.640625 849.117188 674.601562 849.117188 674.601562 C 861.082031 546.703125 794.710938 506.03125 794.710938 506.03125 C 860.226562 519.070312 868.519531 629.796875 868.519531 629.796875 C 896.671875 483.167969 1041.5 567.027344 1041.5 567.027344 C 869.160156 504.714844 899.148438 661.378906 905.390625 688.035156 L 828.707031 688.035156 C 806.429688 579.265625 697.464844 577.125 697.464844 577.125 "/>
<path style=" stroke:none;fill-rule:nonzero;fill:rgb(22.749329%,63.919067%,23.919678%);fill-opacity:1;" d="M 809.828125 626 C 874.394531 615.378906 890.855469 675.976562 890.855469 675.976562 C 891.191406 628.050781 931.523438 613.972656 946.640625 610.390625 C 921.425781 618.195312 918.121094 661.285156 918.121094 661.285156 C 943.457031 638.515625 987.308594 666.703125 987.308594 666.703125 C 950.832031 658.65625 934.980469 674.691406 928.1875 688.035156 L 862.796875 688.035156 C 856.308594 639.621094 809.828125 626 809.828125 626 "/>
<path style=" stroke:none;fill-rule:nonzero;fill:rgb(10.5896%,67.059326%,19.60907%);fill-opacity:1;" d="M 126.503906 757.222656 C 127.847656 733.285156 125.367188 709.984375 118.554688 686.992188 C 116.40625 679.738281 115.035156 670.925781 113.878906 662.277344 C 126.515625 678.949219 135.324219 697.152344 138.984375 717.746094 C 138.984375 717.738281 127.046875 750.15625 126.503906 757.222656 Z M 126.503906 757.222656 "/>
<path style=" stroke:none;fill-rule:nonzero;fill:rgb(10.5896%,67.059326%,19.60907%);fill-opacity:1;" d="M 167.816406 808.230469 C 169.542969 789.320312 172.296875 769.8125 175.382812 751.078125 C 178.90625 729.730469 184.230469 705.773438 198.089844 689.148438 C 179.960938 699.71875 165.058594 714.71875 154.730469 732.972656 C 154.730469 732.972656 145.140625 767.878906 143.472656 784.546875 C 141.800781 801.214844 141.511719 808.855469 141.511719 808.855469 Z M 167.816406 808.230469 "/>
<path style=" stroke:none;fill-rule:nonzero;fill:rgb(10.5896%,67.059326%,19.60907%);fill-opacity:1;" d="M 71.828125 678.023438 C 94.160156 717.171875 105.773438 763.171875 106.546875 808.230469 C 108.984375 808.554688 115.238281 807.902344 117.675781 808.230469 L 124.097656 768.398438 C 111.679688 735.230469 97.683594 702.253906 71.828125 678.023438 Z M 71.828125 678.023438 "/>
<path style=" stroke:none;fill-rule:nonzero;fill:rgb(10.5896%,67.059326%,19.60907%);fill-opacity:1;" d="M 167.816406 808.230469 C 172.546875 808.011719 182.109375 809.65625 186.648438 808.328125 C 187.757812 799.164062 186.03125 785.847656 187.984375 776.824219 C 189.714844 768.847656 191.789062 760.890625 195.253906 753.5 C 199.789062 743.820312 206.574219 735.835938 213.292969 727.515625 C 197.800781 734.652344 185.28125 743.34375 174.503906 756.558594 C 174.5 756.5625 168.511719 797.179688 167.816406 808.230469 Z M 167.816406 808.230469 "/>
<path style=" stroke:none;fill-rule:nonzero;fill:rgb(10.5896%,67.059326%,19.60907%);fill-opacity:1;" d="M 105.703125 787.113281 C 99.582031 780.464844 92.859375 772.796875 86.738281 766.148438 C 79.230469 757.988281 70.070312 748.128906 60.144531 743.183594 C 74.941406 760.054688 84.335938 783.363281 89.019531 805.296875 C 89.210938 806.1875 89.410156 807.125 90.011719 807.808594 C 90.675781 808.570312 102.171875 808.691406 106.113281 807.976562 Z M 105.703125 787.113281 "/>
<path style=" stroke:none;fill-rule:nonzero;fill:rgb(10.5896%,67.059326%,19.60907%);fill-opacity:1;" d="M 190.652344 647.101562 C 166.480469 665.238281 150.839844 689.960938 138.984375 717.738281 C 127.128906 745.515625 122.792969 778.464844 117.675781 808.230469 C 126.75 808.148438 131.765625 808.308594 140.832031 808.230469 C 144.535156 772.964844 153.605469 734.621094 164.117188 700.753906 C 170.054688 681.625 176.167969 660.945312 190.652344 647.101562 Z M 190.652344 647.101562 "/>
<path style=" stroke:none;fill-rule:nonzero;fill:rgb(18.429565%,50.19989%,92.939758%);fill-opacity:1;" d="M 214.804688 726.335938 C 214.253906 725.632812 213.292969 725.394531 212.484375 725.777344 C 197.867188 732.507812 186.832031 740.210938 177.480469 750.25 C 180.972656 729.40625 186.378906 706.195312 199.570312 690.382812 C 200.164062 689.664062 200.160156 688.625 199.5625 687.910156 C 198.957031 687.203125 197.933594 687.023438 197.125 687.496094 C 182.503906 696.019531 169.933594 707.519531 160.144531 721.09375 C 162.136719 713.929688 164.109375 707.269531 165.953125 701.320312 L 166.453125 699.703125 C 172.257812 680.96875 178.261719 661.597656 191.980469 648.488281 C 192.714844 647.785156 192.773438 646.632812 192.117188 645.859375 C 191.460938 645.089844 190.316406 644.960938 189.5 645.566406 C 168.886719 661.035156 152.949219 682.085938 139.636719 711.496094 C 135.582031 693.796875 127.648438 677.25 115.410156 661.113281 C 114.878906 660.414062 113.953125 660.171875 113.148438 660.5 C 112.339844 660.832031 111.859375 661.664062 111.976562 662.527344 C 113.0625 670.644531 114.472656 679.96875 116.714844 687.535156 C 123.378906 710.03125 125.953125 732.789062 124.589844 757.109375 C 124.570312 757.425781 124.648438 757.714844 124.765625 757.980469 C 124.453125 759.421875 124.148438 760.863281 123.851562 762.304688 C 112.136719 731.523438 98.179688 700.085938 73.144531 676.628906 C 72.453125 675.980469 71.390625 675.929688 70.640625 676.523438 C 69.898438 677.109375 69.691406 678.152344 70.160156 678.976562 C 87.351562 709.117188 98.609375 744.605469 102.808594 781.082031 C 101.085938 779.179688 99.347656 777.242188 97.605469 775.296875 C 94.40625 771.730469 91.207031 768.167969 88.15625 764.851562 C 81.085938 757.167969 71.402344 746.648438 61.003906 741.472656 C 60.1875 741.0625 59.1875 741.289062 58.628906 742.015625 C 58.066406 742.746094 58.097656 743.761719 58.703125 744.453125 C 71.796875 759.386719 81.898438 781.136719 87.140625 805.699219 C 87.359375 806.730469 87.632812 808.015625 88.566406 809.082031 C 89.445312 810.085938 93.230469 810.382812 97.113281 810.382812 C 100.605469 810.382812 104.148438 810.144531 105.753906 809.964844 C 105.921875 810.039062 106.101562 810.109375 106.292969 810.136719 C 106.902344 810.214844 107.675781 810.246094 108.542969 810.246094 C 109.640625 810.246094 110.894531 810.199219 112.1875 810.15625 C 114.148438 810.078125 116.371094 809.992188 117.421875 810.136719 C 117.472656 810.144531 117.523438 810.125 117.574219 810.128906 C 117.617188 810.132812 117.648438 810.15625 117.695312 810.15625 C 122.21875 810.109375 125.734375 810.136719 129.246094 810.15625 C 131.285156 810.167969 133.320312 810.179688 135.554688 810.179688 C 137.191406 810.179688 138.929688 810.175781 140.851562 810.15625 L 159.867188 810.15625 C 159.878906 810.15625 159.894531 810.15625 159.910156 810.15625 L 167.820312 810.15625 C 167.835938 810.15625 167.851562 810.148438 167.867188 810.148438 C 167.882812 810.148438 167.894531 810.15625 167.910156 810.152344 C 169.542969 810.070312 171.878906 810.242188 174.363281 810.421875 C 176.824219 810.601562 179.328125 810.78125 181.617188 810.78125 C 183.730469 810.78125 185.65625 810.625 187.195312 810.179688 C 187.933594 809.964844 188.46875 809.328125 188.5625 808.566406 C 189.058594 804.460938 189.003906 799.726562 188.949219 794.714844 C 188.875 788.53125 188.808594 782.132812 189.867188 777.238281 C 191.402344 770.148438 193.453125 761.882812 196.996094 754.320312 C 201.046875 745.675781 206.886719 738.476562 213.070312 730.855469 L 214.789062 728.726562 C 215.347656 728.027344 215.355469 727.042969 214.804688 726.335938 Z M 190.757812 696.125 C 180.953125 712.125 176.515625 732.433594 173.492188 750.765625 C 170.058594 771.585938 167.628906 789.773438 166.070312 806.308594 L 161.730469 806.308594 C 161.285156 788.953125 159.65625 764.964844 154.492188 745.441406 C 154.414062 745.132812 154.242188 744.878906 154.035156 744.65625 C 154.984375 740.6875 155.953125 736.808594 156.933594 733.039062 C 165.367188 718.453125 176.925781 705.839844 190.757812 696.125 Z M 152.214844 752.519531 C 156.132812 770.410156 157.488281 790.941406 157.890625 806.308594 L 142.988281 806.308594 C 145.027344 787.859375 148.382812 769.511719 152.214844 752.519531 Z M 120.394531 686.449219 C 118.90625 681.410156 117.785156 675.515625 116.886719 669.730469 C 127.332031 685.019531 133.917969 700.742188 136.988281 717.570312 C 133.695312 725.367188 131.023438 733.523438 128.722656 741.878906 C 128.480469 722.808594 125.757812 704.542969 120.394531 686.449219 Z M 91.257812 806.21875 C 91.097656 805.859375 90.996094 805.355469 90.894531 804.894531 C 86.511719 784.371094 78.796875 765.726562 68.773438 751.1875 C 74.992188 756.222656 80.722656 762.453125 85.320312 767.445312 C 88.363281 770.742188 91.546875 774.296875 94.734375 777.851562 C 97.683594 781.140625 100.621094 784.402344 103.453125 787.5 C 104.027344 793.734375 104.402344 799.992188 104.550781 806.246094 C 100.605469 806.683594 93.296875 806.570312 91.257812 806.21875 Z M 112.039062 806.308594 C 110.820312 806.355469 109.492188 806.367188 108.425781 806.402344 C 108.265625 799.53125 107.757812 792.671875 107.09375 785.820312 C 107.105469 785.816406 107.105469 785.8125 107.117188 785.804688 C 107.109375 785.796875 107.097656 785.789062 107.089844 785.777344 C 103.800781 751.828125 94.535156 718.527344 80.011719 689.296875 C 99.988281 712.3125 111.859375 741.171875 122.304688 769.0625 C 122.339844 769.15625 122.40625 769.222656 122.457031 769.308594 C 120.78125 778.09375 119.289062 786.933594 117.839844 795.679688 C 117.25 799.230469 116.664062 802.738281 116.070312 806.21875 C 114.875 806.210938 113.492188 806.257812 112.039062 806.308594 Z M 129.269531 806.308594 C 127.230469 806.296875 125.191406 806.289062 122.960938 806.289062 C 122 806.289062 121.003906 806.289062 119.953125 806.296875 C 120.515625 803 121.066406 799.664062 121.625 796.308594 C 126.03125 769.757812 130.585938 742.296875 140.75 718.488281 C 151.050781 694.359375 162.925781 675.726562 177.425781 661.148438 C 170.839844 672.574219 166.769531 685.714844 162.78125 698.570312 L 162.285156 700.179688 C 159.472656 709.234375 156.378906 719.886719 153.347656 731.554688 C 153.257812 731.714844 153.148438 731.867188 153.0625 732.03125 C 153.121094 732.0625 153.144531 732.089844 153.203125 732.125 C 147.457031 754.320312 141.964844 780.21875 139.109375 806.324219 C 135.382812 806.355469 132.324219 806.324219 129.269531 806.308594 Z M 193.511719 752.691406 C 189.804688 760.59375 187.691406 769.121094 186.109375 776.425781 C 184.957031 781.738281 185.03125 788.355469 185.105469 794.753906 C 185.15625 799.078125 185.203125 803.183594 184.886719 806.746094 C 182.214844 807.140625 178.21875 806.84375 174.636719 806.59375 C 172.960938 806.476562 171.367188 806.363281 169.9375 806.316406 C 171.335938 791.582031 173.429688 775.5 176.316406 757.394531 C 184.507812 747.453125 193.964844 739.757812 206.296875 733.136719 C 201.503906 739.171875 196.878906 745.503906 193.511719 752.691406 Z M 193.511719 752.691406 "/>
</g>
</svg>
